<svg width="400" height="400" viewBox="0 0 400 400" fill="none" xmlns="http://www.w3.org/2000/svg">
  <rect width="400" height="400" fill="#1a1a2e"/>
  <rect x="100" y="100" width="200" height="200" rx="20" fill="#2a2a4e"/>
  <path d="M200 160C177.909 160 160 177.909 160 200C160 222.091 177.909 240 200 240C222.091 240 240 222.091 240 200C240 177.909 222.091 160 200 160ZM200 220C189.506 220 180 210.494 180 200C180 189.506 189.506 180 200 180C210.494 180 220 189.506 220 200C220 210.494 210.494 220 200 220Z" fill="#6366f1"/>
  <path d="M260 140H140C128.954 140 120 148.954 120 160V240C120 251.046 128.954 260 140 260H260C271.046 260 280 251.046 280 240V160C280 148.954 271.046 140 260 140ZM260 240H140V160H260V240Z" fill="#8b5cf6"/>
  <text x="200" y="320" text-anchor="middle" fill="#ffffff80" font-family="system-ui" font-size="16">No Image Available</text>
</svg>
